<?xml version="1.0" encoding="UTF-8"?>
<svg version="1.1" xmlns="http://www.w3.org/2000/svg" width="500" height="500">
<path d="M0 0 C0.67417969 0.52980469 1.34835937 1.05960938 2.04296875 1.60546875 C19.81299345 15.97045878 30.23552503 39.47165076 35.75 61.0625 C35.94883789 61.84077148 36.14767578 62.61904297 36.35253906 63.42089844 C39.46071724 76.32810147 40.37751456 89.03637015 40.3125 102.25 C40.31067719 103.02068817 40.30885437 103.79137634 40.30697632 104.5854187 C40.26165117 115.9726601 39.78171743 126.91967475 37 138 C36.83371094 138.71784668 36.66742188 139.43569336 36.49609375 140.17529297 C29.68466306 169.34461422 14.04968611 196.44772782 -11.30859375 213.18359375 C-43.89600977 233.23164462 -81.87831206 228.99313906 -118.30813599 225.59339905 C-126.44530882 224.8455033 -134.59468041 224.31729049 -142.75 223.8125 C-143.43064514 223.76998108 -144.11129028 223.72746216 -144.81256104 223.68365479 C-148.54142504 223.45099264 -152.27054513 223.22298265 -156 223 C-156.33 222.01 -156.66 221.02 -157 220 C-155.89591797 219.67128906 -155.89591797 219.67128906 -154.76953125 219.3359375 C-148.38508921 217.26120469 -144.62430656 215.72874262 -141 210 C-132.78553773 193.09964836 -136.70400407 167.19332646 -136.73134899 148.70840549 C-136.73648569 144.13736816 -136.73169692 139.56633803 -136.72857666 134.99530029 C-136.72496048 127.33002252 -136.72967542 119.66478357 -136.73925781 111.99951172 C-136.7501534 103.18287436 -136.74659923 94.36632945 -136.735605 85.5496943 C-136.72648331 77.92443187 -136.7252701 70.29919701 -136.73048234 62.67393088 C-136.73357336 58.14369173 -136.73409122 53.61349582 -136.72740936 49.08325958 C-136.72156422 44.82469993 -136.72576145 40.56625781 -136.73719788 36.30771065 C-136.73980596 34.76033026 -136.73914689 33.2129397 -136.73467255 31.66556358 C-136.71364113 23.64285392 -136.99270733 15.75040862 -137.90289307 7.77410889 C-137.98193556 7.07297635 -138.06097805 6.37184382 -138.14241576 5.64946485 C-138.98571434 -1.0619942 -140.58281682 -6.37562969 -145.1875 -11.375 C-148.94982974 -13.54879051 -152.83701534 -14.8028018 -157 -16 C-156.67 -16.99 -156.34 -17.98 -156 -19 C-147.20017178 -19.91961951 -138.39335444 -20.37757836 -129.56011963 -20.81622314 C-113.31622308 -21.62408755 -113.31622308 -21.62408755 -97.125 -23.125 C-62.16952472 -26.8688057 -27.65262961 -23.83188631 0 0 Z M-114 -13 C-114.09798302 -10.04171032 -114.12991615 -7.10675888 -114.12025452 -4.14805603 C-114.12110894 -3.20798456 -114.12196337 -2.26791309 -114.12284368 -1.29935461 C-114.12450136 1.87605137 -114.11897243 5.05140546 -114.11352539 8.22680664 C-114.11324355 10.49293517 -114.11340118 12.75906379 -114.1139679 15.02519226 C-114.11425601 21.19849782 -114.10835703 27.37178413 -114.10139394 33.54508519 C-114.09516272 39.98866889 -114.09455679 46.43225298 -114.09336853 52.87583923 C-114.09060882 63.69791031 -114.08435327 74.51997345 -114.07543945 85.34204102 C-114.06626607 96.49080367 -114.05918488 107.63956441 -114.05493164 118.78833008 C-114.05466892 119.47507634 -114.05440619 120.1618226 -114.05413551 120.86937935 C-114.05283051 124.31444509 -114.05156679 127.75951085 -114.05032361 131.20457661 C-114.0399501 159.80305587 -114.02225689 188.40152766 -114 217 C-112.75220634 217.48434852 -111.50277147 217.9644699 -110.25268555 218.44287109 C-109.5570903 218.71070404 -108.86149506 218.97853699 -108.14482117 219.25448608 C-104.76417773 220.42955688 -101.33669298 221.04610153 -97.8125 221.625 C-97.07563965 221.74979736 -96.3387793 221.87459473 -95.57958984 222.00317383 C-89.07350896 223.06451437 -82.58831322 223.72259734 -76 224 C-75.1028125 224.04125 -74.205625 224.0825 -73.28125 224.125 C-51.55730232 224.63615171 -31.33433989 217.48728568 -15.36523438 202.52270508 C9.17571299 178.34858199 17.86635257 140.99787071 18.2265625 107.67141724 C18.24171231 105.42673018 18.24823093 103.18223668 18.25 100.9375 C18.25067474 100.1630957 18.25134949 99.38869141 18.25204468 98.59082031 C18.23577337 86.80978324 17.72161466 75.50763957 15 64 C14.82307617 63.21818359 14.64615234 62.43636719 14.46386719 61.63085938 C8.31783013 34.90249787 -3.69893055 7.81031921 -27.4375 -7.8125 C-41.99967907 -16.49262076 -55.99727274 -19.59833733 -72.875 -19.5 C-73.9431897 -19.50034744 -73.9431897 -19.50034744 -75.03295898 -19.5007019 C-95.86119855 -20.06754781 -95.86119855 -20.06754781 -114 -13 Z " fill="#ECEAE4" transform="translate(411,118)"/>
<path d="M0 0 C1.91764832 0.36619568 1.91764832 0.36619568 4 1 C5.31762695 3.14086914 5.31762695 3.14086914 6.48828125 6.03515625 C6.93864746 7.13174561 7.38901367 8.22833496 7.85302734 9.3581543 C8.57546631 11.19180542 8.57546631 11.19180542 9.3125 13.0625 C9.83994431 14.3724391 10.36812256 15.68208289 10.89697266 16.99145508 C16.40564909 30.7193146 21.54159029 44.59317215 26.6953125 58.45703125 C31.65070446 71.78680722 36.70055257 85.08062906 41.75 98.375 C42.21809082 99.60743439 42.68618164 100.83986877 43.16845703 102.10964966 C43.64224906 103.35703666 44.11604464 104.60442232 44.58984375 105.85180664 C44.82435368 106.46920936 45.0588636 107.08661207 45.30047989 107.72272396 C46.48255493 110.83476709 47.66473905 113.94676868 48.84710693 117.05870056 C51.93054191 125.17636222 55.00319084 133.29803769 58.0703125 141.421875 C65.1768558 160.23341234 72.31450204 179.03265558 79.72564697 197.72674561 C80.39397057 199.41378183 81.05989632 201.10177052 81.7230835 202.79083252 C89.68996839 225.39156027 89.68996839 225.39156027 105.953125 241.4375 C108.61742006 242.42123971 111.25434927 243.27825725 114 244 C114 244.99 114 245.98 114 247 C87.6 247 61.2 247 34 247 C34 246.01 34 245.02 34 244 C35.0621875 243.84144531 36.124375 243.68289063 37.21875 243.51953125 C45.97860542 242.1125293 53.17744564 240.80001906 59.671875 234.3359375 C61.57509096 230.98851649 61.47446409 227.8093149 61.4375 224.0625 C61.45748047 223.37865234 61.47746094 222.69480469 61.49804688 221.99023438 C61.48586248 208.62395164 54.50149791 194.87670411 49.9375 182.5 C49.27259196 180.68957605 48.6077982 178.87911012 47.94311523 177.06860352 C42.40414932 162.00431951 36.74928548 146.98524615 31 132 C30.98541748 132.96075439 30.97083496 133.92150879 30.95581055 134.91137695 C30.40152707 168.73757073 28.77420291 201.78205018 6 229 C5.2575 230.010625 4.515 231.02125 3.75 232.0625 C-6.05251356 243.63267994 -22.67963789 250.96392693 -37.56640625 252.21582031 C-40.31783828 252.35339191 -43.05777759 252.41676579 -45.8125 252.4375 C-47.10087769 252.4526062 -47.10087769 252.4526062 -48.4152832 252.46801758 C-59.33200889 252.32016835 -68.44308925 248.89537376 -76.625 241.6875 C-88.67746759 228.04918141 -91.96516494 215.53142145 -91.18652344 197.50683594 C-90.04368659 182.14734807 -80.35811978 169.67312521 -70 159 C-69.43410156 158.360625 -68.86820313 157.72125 -68.28515625 157.0625 C-58.17886099 146.06245073 -44.35208895 138.18475321 -32 130 C-20.8773849 122.61980182 -20.8773849 122.61980182 -9.875 115.0625 C-9.15957031 114.57974609 -8.44414063 114.09699219 -7.70703125 113.59960938 C-2.60361223 109.97608354 1.28983234 105.6996274 4 100 C4.18937162 97.29397919 3.78667013 95.640964 3 93 C-0.40094951 92.72675298 -2.38418583 92.60821298 -5.30859375 94.46875 C-6.01113281 95.1390625 -6.71367188 95.809375 -7.4375 96.5 C-8.20835938 97.23089844 -8.97921875 97.96179688 -9.7734375 98.71484375 C-12.38643548 101.39660483 -14.82051255 104.19541997 -17.25390625 107.0390625 C-21.25200572 111.52909815 -24.85402544 115.3452959 -30.6875 117.125 C-34.58721541 116.97784093 -36.25610417 116.82704419 -39 114 C-39.60928736 106.76159491 -38.12544872 101.14252961 -35.71875 94.359375 C-35.3642981 93.33003845 -35.00984619 92.3007019 -34.64465332 91.24017334 C-30.08987668 78.15265873 -25.1754376 65.19389483 -20.25506592 52.24053955 C-19.24613223 49.5807421 -18.24216459 46.91908248 -17.23823547 44.25739288 C-11.64873754 29.44162396 -5.96172815 14.67069677 0 0 Z M-8 31 C-15.22270434 48.92603318 -22.16837952 66.93021167 -28.6875 85.125 C-28.99077209 85.96942657 -29.29404419 86.81385315 -29.60650635 87.68386841 C-30.4740694 90.10317863 -31.3376469 92.52386289 -32.19921875 94.9453125 C-32.4538942 95.65760513 -32.70856964 96.36989777 -32.97096252 97.10377502 C-33.66403729 99.06392577 -34.33601396 101.02983005 -35 103 C-35.34050888 103.96507477 -35.34050888 103.96507477 -35.68789673 104.949646 C-36.39911246 107.01248873 -36.39911246 107.01248873 -37 110 C-35.29462783 113.32409061 -35.29462783 113.32409061 -31.875 113.625 C-24.4532094 112.427937 -20.2495465 106.3377763 -15.4375 100.9375 C-6.09871905 90.46335356 -6.09871905 90.46335356 -1.89453125 89.53515625 C1.02290354 89.40230403 3.29965814 89.49036908 5.70703125 91.2421875 C8.25251383 94.70281336 7.55130373 98.91671739 7 103 C2.2895516 116.96225217 -11.85833757 124.97189328 -23.22729492 133.12426758 C-43.48972042 147.66169318 -64.15629671 162.58897606 -69.49609375 188.43359375 C-71.55186061 202.98332352 -69.95638442 215.94332867 -61 228 C-54.59777327 235.06406029 -46.25753337 239.61718619 -36.6796875 240.203125 C-20.66654677 240.40041215 -9.45033608 235.97381024 2.2890625 224.94140625 C7.11786669 219.93904006 10.55207979 213.99364629 14 208 C14.48082031 207.21496094 14.96164063 206.42992187 15.45703125 205.62109375 C18.62730757 199.99511133 20.37767995 193.91499029 22.1875 187.75 C22.43781982 186.90493896 22.68813965 186.05987793 22.94604492 185.18920898 C27.83368281 167.72296969 27.55651337 149.96020416 27 132 C26.97437988 131.0630127 26.94875977 130.12602539 26.92236328 129.16064453 C26.07339335 109.37612412 16.96489659 90.26329447 10 72 C9.29774688 70.15000384 8.59576407 68.29990505 7.89404297 66.44970703 C4.58726767 57.7404349 1.25728722 49.04026455 -2.11328125 40.35546875 C-2.39180435 39.63653946 -2.67032745 38.91761017 -2.95729065 38.17689514 C-4.36817378 34.54036748 -4.36817378 34.54036748 -6 31 C-6.66 31 -7.32 31 -8 31 Z " fill="#ECEAE4" transform="translate(133,94)"/>
<path d="M0 0 C0.66 0.33 1.32 0.66 2 1 C1.88097995 6.53194482 1.7566871 12.06373791 1.62768555 17.59545898 C1.58459883 19.47400768 1.54290752 21.35258896 1.50268555 23.23120117 C1.44434067 25.94459822 1.38083777 28.6578352 1.31640625 31.37109375 C1.29969376 32.19959335 1.28298126 33.02809296 1.26576233 33.88169861 C1.13053155 39.30680532 0.66359853 44.6132803 0 50 C-0.33 50 -0.66 50 -1 50 C-1.33 47.36 -1.66 44.72 -2 42 C-2.33 42 -2.66 42 -3 42 C-2.67 36.72 -2.34 31.44 -2 26 C-1.67 26 -1.34 26 -1 26 C-0.67 17.42 -0.34 8.84 0 0 Z " fill="#F3F2ED" transform="translate(162,220)"/>
<path d="M0 0 C0.33 1.32 0.66 2.64 1 4 C1.99 4 2.98 4 4 4 C4 4.66 4 5.32 4 6 C3.34 6 2.68 6 2 6 C1.67 6.66 1.34 7.32 1 8 C0.01 8 -0.98 8 -2 8 C-1.34 5.36 -0.68 2.72 0 0 Z " fill="#F5F5F1" transform="translate(123,119)"/>
</svg>
